# Blender v3.0.1 OBJ File: 'Inside.blend'
# www.blender.org
mtllib Inside.mtl
o Cube
v 1.000000 18.000000 -10.000000
v -1.000000 -18.000000 -8.000000
v -1.000000 -14.000000 -8.000000
v 1.000000 18.000000 10.000000
v 1.000000 -18.000000 10.000000
v -1.000000 -14.000000 -10.000000
v -1.000000 18.000000 -10.000000
v 1.000000 -18.000000 -8.000000
v 1.000000 -14.000000 -8.000000
v -1.000000 18.000000 10.000000
v -1.000000 -18.000000 10.000000
v 1.000000 -14.000000 -10.000000
vt 0.624977 0.777729
vt 0.375020 0.777729
vt 0.375020 0.527773
vt 0.624976 0.527773
vt 0.624976 0.277816
vt 0.375020 0.277816
vt 0.125063 0.527773
vt 0.152836 0.777729
vt 0.152836 0.752734
vt 0.125063 0.752734
vt 0.624976 0.052855
vt 0.375019 0.052855
vt 0.847160 0.777729
vt 0.874933 0.527772
vt 0.874933 0.752733
vt 0.847160 0.752733
vt 0.624977 0.999913
vt 0.375020 0.999913
vt 0.375019 0.025082
vt 0.624976 0.025082
vt 0.375020 0.000086
vt 0.624976 0.000086
vn 0.0000 1.0000 0.0000
vn 0.0000 0.0000 1.0000
vn -1.0000 0.0000 0.0000
vn 0.0000 -1.0000 0.0000
vn 1.0000 0.0000 0.0000
vn 0.0000 0.0000 -1.0000
usemtl Material
s off
f 1/1/1 7/2/1 10/3/1 4/4/1
f 5/5/2 4/4/2 10/3/2 11/6/2
f 11/7/3 10/3/3 7/2/3 6/8/3 3/9/3 2/10/3
f 8/11/4 5/5/4 11/6/4 2/12/4
f 12/13/5 1/1/5 4/4/5 5/14/5 8/15/5 9/16/5
f 7/2/6 1/1/6 12/17/6 6/18/6
f 3/19/6 9/20/6 8/11/6 2/12/6
f 3/19/4 6/21/4 12/22/4 9/20/4
